<svg xmlns="http://www.w3.org/2000/svg" width="21.573" height="24.306" viewBox="0 0 21.573 24.306">
  <g id="emi" transform="translate(-3.495 -2.487)">
    <path id="Path_89" data-name="Path 89" d="M5.389,9.516a1.388,1.388,0,0,1-.563-2.657l8.157-3.62a2.776,2.776,0,0,1,2.252,0l8.157,3.62a1.388,1.388,0,0,1-.563,2.657Z" transform="translate(0 0)" fill="#00bbe3" stroke="#404554" stroke-linecap="round" stroke-width="1"/>
    <path id="Path_90" data-name="Path 90" d="M6,10.787A.787.787,0,0,1,6.787,10H7.835a.787.787,0,0,1,.787.787V19.7a.787.787,0,0,1-.787.787H6.787A.787.787,0,0,1,6,19.7Z" transform="translate(0.622 2.177)" fill="#fff" stroke="#404554" stroke-linecap="round" stroke-width="1"/>
    <rect id="Rectangle_92" data-name="Rectangle 92" width="2.611" height="10.443" rx="0.6" transform="translate(13.549 12.137)" fill="#fff" stroke="#404554" stroke-linecap="round" stroke-width="1"/>
    <path id="Path_91" data-name="Path 91" d="M16,10.787A.787.787,0,0,1,16.787,10h1.049a.787.787,0,0,1,.787.787V19.7a.787.787,0,0,1-.787.787H16.787A.787.787,0,0,1,16,19.7Z" transform="translate(3.733 2.177)" fill="#fff" stroke="#404554" stroke-linecap="round" stroke-width="1"/>
    <path id="Path_92" data-name="Path 92" d="M13.009,20.509H4.562" transform="translate(0.175 5.447)" fill="none" stroke="#404554" stroke-linecap="round" stroke-width="1"/>
    <path id="Path_93" data-name="Path 93" d="M16.7,23.467a5.692,5.692,0,1,0-5.692-5.692A5.692,5.692,0,0,0,16.7,23.467Z" transform="translate(2.179 2.826)" fill="#00bbe3" stroke="#404554" stroke-linecap="round" stroke-width="1"/>
    <path id="Path_94" data-name="Path 94" d="M14.267,16.371a1.138,1.138,0,1,0-1.138-1.138A1.138,1.138,0,0,0,14.267,16.371Z" transform="translate(2.84 3.451)" fill="#fff" stroke="#404554" stroke-linecap="round" stroke-width="1"/>
    <path id="Path_95" data-name="Path 95" d="M17.125,19.568a1.138,1.138,0,1,0-1.138-1.138A1.138,1.138,0,0,0,17.125,19.568Z" transform="translate(3.729 4.446)" fill="#fff" stroke="#404554" stroke-linecap="round" stroke-width="1"/>
    <path id="Path_96" data-name="Path 96" d="M18.179,14.614l-4.559,5.14Z" transform="translate(2.992 3.613)" fill="#fff"/>
    <path id="Path_97" data-name="Path 97" d="M18.179,14.614l-4.559,5.14" transform="translate(2.992 3.613)" fill="none" stroke="#404554" stroke-linecap="round" stroke-width="1"/>
  </g>
</svg>
