<svg width="145" height="44" viewBox="0 0 145 44" fill="none" xmlns="http://www.w3.org/2000/svg">
<path d="M139.631 0.862791C140.827 0.862791 141.974 1.34002 142.82 2.18949C143.666 3.03897 144.141 4.1911 144.141 5.39244V37.7471C144.141 38.9484 143.666 40.1006 142.82 40.95C141.974 41.7995 140.827 42.2767 139.631 42.2767H5.41039C4.21432 42.2767 3.06723 41.7995 2.22147 40.95C1.37572 40.1006 0.900578 38.9484 0.900578 37.7471V5.39244C0.900578 4.1911 1.37572 3.03897 2.22147 2.18949C3.06723 1.34002 4.21432 0.862791 5.41039 0.862791H139.631ZM139.631 0H5.41039C3.98649 0 2.62091 0.56813 1.61406 1.57941C0.607208 2.59069 0.0415649 3.96228 0.0415649 5.39244V37.7471C0.0415649 39.1772 0.607208 40.5488 1.61406 41.5601C2.62091 42.5714 3.98649 43.1395 5.41039 43.1395H139.631C141.055 43.1395 142.421 42.5714 143.427 41.5601C144.434 40.5488 145 39.1772 145 37.7471V5.39244C145 3.96228 144.434 2.59069 143.427 1.57941C142.421 0.56813 141.055 0 139.631 0Z" fill="#292929"/>
<path d="M50.9596 11.0438C50.9772 11.4393 50.9149 11.8343 50.7765 12.2049C50.6381 12.5756 50.4264 12.9143 50.1542 13.2006C49.8492 13.5169 49.4811 13.765 49.074 13.9285C48.6669 14.0921 48.23 14.1674 47.792 14.1497C47.3513 14.1595 46.9134 14.0785 46.5052 13.9115C46.097 13.7446 45.7273 13.4953 45.4189 13.1791C44.7933 12.5363 44.4429 11.6731 44.4429 10.7742C44.4429 9.87531 44.7933 9.01212 45.4189 8.36935C45.8973 7.89989 46.5031 7.5829 47.1603 7.45818C47.8175 7.33346 48.4967 7.40659 49.1127 7.66838C49.4999 7.82823 49.8452 8.07546 50.122 8.39091L49.5529 8.96247C49.3397 8.70449 49.0695 8.49998 48.7638 8.3652C48.4581 8.23041 48.1254 8.16906 47.792 8.18602C47.3711 8.18894 46.9573 8.29536 46.5868 8.49597C46.2163 8.69658 45.9004 8.98527 45.6667 9.33682C45.4329 9.68837 45.2885 10.0921 45.2459 10.5126C45.2034 10.9332 45.2641 11.3578 45.4227 11.7494C45.5813 12.1409 45.833 12.4875 46.1557 12.7589C46.4785 13.0302 46.8625 13.218 47.2742 13.3058C47.6859 13.3937 48.1128 13.3789 48.5175 13.2628C48.9222 13.1467 49.2925 12.9329 49.5959 12.6399C49.9239 12.2787 50.114 11.8127 50.1328 11.3242H47.792V10.5477H50.9166C50.9411 10.7121 50.9554 10.8777 50.9596 11.0438Z" fill="#292929" stroke="#292929" stroke-width="0.200834" stroke-miterlimit="10"/>
<path d="M55.8776 8.34707H52.9784V10.3963H55.6199V11.1728H52.9784V13.2221H55.8776V14.0202H52.1409V7.54895H55.8776V8.34707Z" fill="#292929" stroke="#292929" stroke-width="0.200834" stroke-miterlimit="10"/>
<path d="M59.3993 14.0202H58.5725V8.34707H56.7686V7.54895H61.2462V8.34707H59.3993V14.0202Z" fill="#292929" stroke="#292929" stroke-width="0.200834" stroke-miterlimit="10"/>
<path d="M64.4031 14.0202V7.54895H65.2299V14.0202H64.4031Z" fill="#292929" stroke="#292929" stroke-width="0.200834" stroke-miterlimit="10"/>
<path d="M68.9021 14.0202H68.0754V8.34707H66.2714V7.54895H70.6953V8.34707H68.9021V14.0202Z" fill="#292929" stroke="#292929" stroke-width="0.200834" stroke-miterlimit="10"/>
<path d="M79.0814 13.1786C78.7713 13.4903 78.4031 13.7376 77.9977 13.9064C77.5924 14.0751 77.1579 14.1619 76.7192 14.1619C76.2804 14.1619 75.8459 14.0751 75.4406 13.9064C75.0353 13.7376 74.667 13.4903 74.3569 13.1786C73.7498 12.5305 73.4119 11.6742 73.4119 10.7844C73.4119 9.89459 73.7498 9.03831 74.3569 8.3902C74.6603 8.06968 75.0274 7.81671 75.4343 7.64765C75.8412 7.4786 76.2789 7.39722 76.7192 7.4088C77.1588 7.40181 77.5951 7.48528 78.0014 7.65406C78.4076 7.82284 78.7752 8.07336 79.0814 8.3902C79.3902 8.70564 79.6329 9.08002 79.7952 9.49124C79.9575 9.90245 80.0361 10.3422 80.0264 10.7844C80.0404 11.2272 79.9638 11.6682 79.8013 12.08C79.6388 12.4918 79.3937 12.8657 79.0814 13.1786ZM74.9689 12.6394C75.1977 12.8722 75.4702 13.057 75.7706 13.1832C76.0711 13.3094 76.3935 13.3744 76.7192 13.3744C77.0448 13.3744 77.3672 13.3094 77.6677 13.1832C77.9681 13.057 78.2407 12.8722 78.4694 12.6394C78.9327 12.1337 79.1899 11.4716 79.1899 10.7844C79.1899 10.0972 78.9327 9.4351 78.4694 8.92943C78.2407 8.69662 77.9681 8.51175 77.6677 8.38558C77.3672 8.25941 77.0448 8.19443 76.7192 8.19443C76.3935 8.19443 76.0711 8.25941 75.7706 8.38558C75.4702 8.51175 75.1977 8.69662 74.9689 8.92943C74.5056 9.4351 74.2484 10.0972 74.2484 10.7844C74.2484 11.4716 74.5056 12.1337 74.9689 12.6394Z" fill="#292929" stroke="#292929" stroke-width="0.200834" stroke-miterlimit="10"/>
<path d="M81.1968 14.0202V7.54895H82.1954L85.3308 12.5857V11.3346V7.54895H86.1576V14.0202H85.2986L82.0236 8.74613V9.98645V14.0202H81.1968Z" fill="#292929" stroke="#292929" stroke-width="0.200834" stroke-miterlimit="10"/>
<path d="M73.2079 23.4565C72.3032 23.4586 71.4195 23.7301 70.6684 24.2367C69.9174 24.7433 69.3328 25.4623 68.9885 26.3026C68.6443 27.1429 68.5559 28.0669 68.7344 28.9577C68.913 29.8485 69.3506 30.6661 69.9918 31.3071C70.633 31.9481 71.4491 32.3837 72.3368 32.5589C73.2246 32.7341 74.1441 32.6409 74.9791 32.2912C75.8141 31.9415 76.5271 31.351 77.028 30.5943C77.5288 29.8376 77.795 28.9487 77.7929 28.04C77.8017 27.4338 77.6889 26.8321 77.4613 26.2706C77.2337 25.7091 76.896 25.1993 76.4682 24.7717C76.0404 24.344 75.5313 24.0072 74.9712 23.7812C74.4111 23.5553 73.8114 23.4448 73.2079 23.4565ZM73.2079 30.8225C72.6534 30.8614 72.1001 30.7319 71.6198 30.4508C71.1395 30.1697 70.7546 29.75 70.5149 29.2462C70.2753 28.7424 70.1922 28.1779 70.2762 27.626C70.3603 27.0741 70.6077 26.5604 70.9863 26.1516C71.3649 25.7428 71.8572 25.4579 72.3991 25.3339C72.9411 25.2098 73.5077 25.2524 74.0253 25.4561C74.5428 25.6597 74.9874 26.0151 75.3013 26.4759C75.6151 26.9367 75.7836 27.4817 75.785 28.04C75.8023 28.3938 75.7489 28.7474 75.6279 29.0801C75.507 29.4128 75.3209 29.7178 75.0807 29.9771C74.8406 30.2365 74.5511 30.4449 74.2295 30.5901C73.9078 30.7352 73.5605 30.8143 73.2079 30.8225ZM63.2004 23.4565C62.2957 23.4586 61.412 23.7301 60.6609 24.2367C59.9099 24.7433 59.3253 25.4623 58.981 26.3026C58.6368 27.1429 58.5484 28.0669 58.7269 28.9577C58.9055 29.8485 59.3431 30.6661 59.9843 31.3071C60.6255 31.9481 61.4416 32.3837 62.3293 32.5589C63.2171 32.7341 64.1366 32.6409 64.9716 32.2912C65.8066 31.9415 66.5196 31.351 67.0205 30.5943C67.5213 29.8376 67.7875 28.9487 67.7854 28.04C67.7942 27.4338 67.6814 26.8321 67.4538 26.2706C67.2262 25.7091 66.8885 25.1993 66.4607 24.7717C66.0329 24.344 65.5238 24.0072 64.9637 23.7812C64.4036 23.5553 63.8039 23.4448 63.2004 23.4565ZM63.2004 30.8225C62.6459 30.8614 62.0926 30.7319 61.6123 30.4508C61.132 30.1697 60.7471 29.75 60.5075 29.2462C60.2678 28.7424 60.1847 28.1779 60.2687 27.626C60.3528 27.0741 60.6002 26.5604 60.9788 26.1516C61.3574 25.7428 61.8497 25.4579 62.3916 25.3339C62.9336 25.2098 63.5002 25.2524 64.0178 25.4561C64.5353 25.6597 64.9799 26.0151 65.2938 26.4759C65.6076 26.9367 65.7761 27.4817 65.7775 28.04C65.7948 28.3938 65.7414 28.7474 65.6204 29.0801C65.4995 29.4128 65.3134 29.7178 65.0732 29.9771C64.8331 30.2365 64.5436 30.4449 64.222 30.5901C63.9003 30.7352 63.553 30.8143 63.2004 30.8225ZM51.3031 24.8693V26.8105H55.9418C55.869 27.7249 55.4906 28.5877 54.868 29.2587C54.4027 29.7348 53.8431 30.1076 53.2253 30.3528C52.6075 30.5981 51.9453 30.7103 51.2816 30.6823C49.9147 30.6823 48.6037 30.1369 47.6372 29.1661C46.6706 28.1952 46.1276 26.8785 46.1276 25.5056C46.1276 24.1326 46.6706 22.8159 47.6372 21.8451C48.6037 20.8743 49.9147 20.3289 51.2816 20.3289C52.5921 20.3093 53.8575 20.8091 54.8036 21.7201L56.1673 20.3504C55.5273 19.7147 54.7674 19.2136 53.9322 18.8765C53.0969 18.5395 52.2031 18.3733 51.3031 18.3876C50.3485 18.3503 49.3963 18.5069 48.5034 18.8481C47.6105 19.1892 46.7954 19.7079 46.1069 20.3731C45.4184 21.0382 44.8706 21.8361 44.4965 22.719C44.1224 23.6018 43.9295 24.5515 43.9295 25.511C43.9295 26.4705 44.1224 27.4201 44.4965 28.3029C44.8706 29.1858 45.4184 29.9837 46.1069 30.6488C46.7954 31.314 47.6105 31.8327 48.5034 32.1739C49.3963 32.515 50.3485 32.6716 51.3031 32.6343C52.2216 32.6712 53.1375 32.5125 53.9906 32.1686C54.8438 31.8247 55.6148 31.3035 56.2532 30.6391C57.3808 29.395 57.9816 27.7587 57.9282 26.0772C57.9321 25.6724 57.8997 25.2682 57.8316 24.8693H51.3031ZM99.9554 26.3791C99.6754 25.5517 99.1517 24.8291 98.4538 24.3072C97.7558 23.7853 96.9165 23.4886 96.0469 23.4565C95.4596 23.4553 94.8782 23.5752 94.3388 23.8086C93.7994 24.0421 93.3134 24.3842 92.9109 24.8138C92.5083 25.2434 92.1978 25.7513 91.9984 26.3062C91.7991 26.8611 91.7152 27.4512 91.7519 28.04C91.7427 29.0245 92.0509 29.9856 92.6303 30.7796C93.2098 31.5737 94.0295 32.1582 94.967 32.4458C95.9045 32.7333 96.9094 32.7086 97.8318 32.3752C98.7541 32.0418 99.5443 31.4177 100.084 30.596L98.5273 29.5175C98.2952 29.9061 97.966 30.2269 97.5724 30.4483C97.1787 30.6696 96.7343 30.7837 96.2832 30.7793C95.8178 30.7986 95.3574 30.6761 94.9627 30.4278C94.5679 30.1795 94.2571 29.8171 94.0712 29.3881L100.181 26.8537L99.9554 26.3791ZM93.7276 27.9106C93.7058 27.5756 93.7508 27.2396 93.86 26.9223C93.9691 26.605 94.1402 26.3127 94.3632 26.0626C94.5862 25.8126 94.8566 25.6097 95.1586 25.4659C95.4606 25.3221 95.7882 25.2402 96.1221 25.2252C96.4681 25.204 96.8126 25.2858 97.1125 25.4603C97.4123 25.6349 97.6543 25.8945 97.8079 26.2066L93.7276 27.9106ZM88.7668 32.3539H90.7747V18.8729H88.7668V32.3539ZM85.4811 24.481H85.4059C85.106 24.1379 84.7358 23.8639 84.3206 23.6778C83.9055 23.4916 83.4553 23.3978 83.0007 23.4025C81.8273 23.4597 80.7207 23.9681 79.9104 24.8224C79.1 25.6768 78.648 26.8115 78.648 27.9915C78.648 29.1714 79.1 30.3062 79.9104 31.1605C80.7207 32.0148 81.8273 32.5233 83.0007 32.5804C83.4559 32.5896 83.9076 32.4977 84.3233 32.3112C84.7391 32.1248 85.1088 31.8485 85.4059 31.5019H85.4811V32.1598C85.4811 33.9177 84.5469 34.856 83.0436 34.856C82.5415 34.8449 82.0539 34.6842 81.6428 34.3942C81.2318 34.1043 80.9158 33.6982 80.735 33.2275L78.9955 33.9501C79.3171 34.7614 79.8763 35.4555 80.5991 35.9408C81.3219 36.4261 82.1743 36.6796 83.0436 36.6679C85.3952 36.6679 87.3387 35.2766 87.3387 31.8902V23.7261H85.4811V24.481ZM83.1725 30.8225C82.469 30.7784 81.8086 30.4667 81.3259 29.9507C80.8433 29.4347 80.5746 28.7534 80.5746 28.0454C80.5746 27.3374 80.8433 26.656 81.3259 26.1401C81.8086 25.6241 82.469 25.3124 83.1725 25.2683C83.5163 25.2832 83.8537 25.3674 84.1645 25.516C84.4753 25.6645 84.7531 25.8743 84.9816 26.1329C85.21 26.3915 85.3843 26.6936 85.4941 27.0212C85.6039 27.3489 85.6469 27.6953 85.6207 28.04C85.65 28.3859 85.6091 28.7341 85.5006 29.0636C85.3921 29.3932 85.2181 29.6972 84.9893 29.9573C84.7604 30.2174 84.4814 30.4282 84.1691 30.5769C83.8569 30.7256 83.5178 30.8092 83.1725 30.8225ZM109.362 18.8729H104.551V32.3539H106.559V27.2419H109.362C109.934 27.2832 110.508 27.2057 111.05 27.0141C111.591 26.8225 112.087 26.521 112.507 26.1284C112.927 25.7358 113.262 25.2605 113.491 24.7321C113.72 24.2038 113.838 23.6337 113.838 23.0574C113.838 22.4812 113.72 21.9111 113.491 21.3827C113.262 20.8544 112.927 20.3791 112.507 19.9865C112.087 19.5938 111.591 19.2923 111.05 19.1008C110.508 18.9092 109.934 18.8316 109.362 18.8729ZM109.362 25.3438H106.559V20.7495H109.405C109.706 20.7495 110.005 20.8092 110.284 20.9252C110.563 21.0411 110.816 21.2111 111.029 21.4255C111.243 21.6398 111.412 21.8942 111.528 22.1742C111.643 22.4542 111.702 22.7543 111.702 23.0574C111.702 23.3605 111.643 23.6606 111.528 23.9406C111.412 24.2206 111.243 24.4751 111.029 24.6894C110.816 24.9037 110.563 25.0737 110.284 25.1897C110.005 25.3057 109.706 25.3654 109.405 25.3654L109.362 25.3438ZM121.753 23.4133C121.022 23.368 120.293 23.539 119.658 23.9051C119.022 24.2712 118.508 24.8164 118.177 25.4732L119.949 26.2174C120.128 25.8932 120.397 25.628 120.722 25.4538C121.048 25.2797 121.417 25.204 121.785 25.236C122.04 25.2061 122.298 25.2274 122.545 25.2989C122.791 25.3703 123.021 25.4903 123.221 25.6519C123.421 25.8136 123.587 26.0136 123.709 26.2403C123.831 26.467 123.907 26.7158 123.933 26.9723V27.1017C123.287 26.7608 122.568 26.5832 121.839 26.5841C119.927 26.5841 117.973 27.6625 117.973 29.6254C117.992 30.0426 118.094 30.4517 118.274 30.8285C118.453 31.2052 118.706 31.5419 119.018 31.8186C119.329 32.0952 119.693 32.3062 120.087 32.4389C120.481 32.5716 120.898 32.6234 121.313 32.5912C121.817 32.6192 122.319 32.5121 122.768 32.2809C123.217 32.0497 123.597 31.7027 123.868 31.2754H123.933V32.3539H125.865V27.1664C125.865 24.8046 124.083 23.4349 121.796 23.4349L121.753 23.4133ZM121.506 30.8009C120.851 30.8009 119.938 30.4666 119.938 29.6577C119.938 28.5792 121.076 28.2126 122.086 28.2126C122.724 28.1968 123.354 28.3532 123.911 28.6655C123.844 29.2512 123.567 29.7925 123.133 30.1891C122.699 30.5857 122.136 30.8107 121.549 30.8225L121.506 30.8009ZM132.909 23.7261L130.611 29.5714H130.547L128.163 23.7261H126.016L129.591 31.901L127.551 36.4414H129.645L135.143 23.7261H132.909ZM114.87 32.3539H116.867V18.8729H114.87V32.3539Z" fill="#292929"/>
<path d="M11.2517 8.13153C10.8979 8.55172 10.7173 9.09188 10.747 9.6414V33.4975C10.7105 34.0479 10.8919 34.5906 11.2517 35.0074L11.3269 35.0936L24.6308 21.7312V21.4077L11.3269 8.05603L11.2517 8.13153Z" fill="#292929" stroke="#F0EFF1" stroke-width="1.00417" stroke-miterlimit="10"/>
<path d="M29.0334 26.1858L24.631 21.7315V21.4079L29.0334 16.9536L29.1301 17.0183L34.4022 20.0166C35.9055 20.8687 35.9055 22.2707 34.4022 23.1336L29.1515 26.1318L29.0334 26.1858Z" fill="#292929" stroke="#F0EFF1" stroke-width="1.00417" stroke-miterlimit="10"/>
<path d="M29.1621 26.1205L24.6308 21.5695L11.2517 35.007C11.5551 35.2782 11.9435 35.4343 12.3495 35.4481C12.7555 35.4618 13.1534 35.3325 13.4744 35.0824L29.1621 26.1205Z" fill="#292929"/>
<path d="M29.1621 26.1205L24.6308 21.5695L11.2517 35.007C11.5551 35.2782 11.9435 35.4343 12.3495 35.4481C12.7555 35.4618 13.1534 35.3325 13.4744 35.0824L29.1621 26.1205" stroke="#F0EFF1" stroke-width="1.00417" stroke-miterlimit="10"/>
<path d="M29.1621 17.0182L13.4744 8.06671C13.1555 7.81317 12.7579 7.68067 12.3513 7.6925C11.9448 7.70434 11.5554 7.85975 11.2517 8.13142L24.6308 21.5695L29.1621 17.0182Z" fill="#292929" stroke="#F0EFF1" stroke-width="1.00417" stroke-miterlimit="10"/>
</svg>
