<svg width="145" height="45" viewBox="0 0 145 45" fill="none" xmlns="http://www.w3.org/2000/svg">
<path d="M139.631 0.862791C140.827 0.862791 141.974 1.34002 142.82 2.18949C143.666 3.03897 144.141 4.1911 144.141 5.39244V37.7471C144.141 38.9484 143.666 40.1006 142.82 40.95C141.974 41.7995 140.827 42.2767 139.631 42.2767H5.41039C4.21432 42.2767 3.06723 41.7995 2.22147 40.95C1.37572 40.1006 0.900578 38.9484 0.900578 37.7471V5.39244C0.900578 4.1911 1.37572 3.03897 2.22147 2.18949C3.06723 1.34002 4.21432 0.862791 5.41039 0.862791H139.631ZM139.631 0H5.41039C3.98649 0 2.62091 0.56813 1.61406 1.57941C0.607208 2.59069 0.0415649 3.96228 0.0415649 5.39244V37.7471C0.0415649 39.1772 0.607208 40.5488 1.61406 41.5601C2.62091 42.5714 3.98649 43.1395 5.41039 43.1395H139.631C141.055 43.1395 142.421 42.5714 143.427 41.5601C144.434 40.5488 145 39.1772 145 37.7471V5.39244C145 3.96228 144.434 2.59069 143.427 1.57941C142.421 0.56813 141.055 0 139.631 0Z" fill="#292929"/>
<path d="M27.0871 21.4441C27.0997 20.4652 27.3585 19.5054 27.8396 18.6541C28.3207 17.8027 29.0084 17.0874 29.8387 16.5747C29.3112 15.8181 28.6154 15.1954 27.8064 14.7561C26.9975 14.3169 26.0977 14.0731 25.1785 14.0442C23.2178 13.8375 21.3169 15.2227 20.3178 15.2227C19.2993 15.2227 17.7609 14.0648 16.1044 14.099C15.0329 14.1337 13.9886 14.4467 13.0733 15.0074C12.158 15.568 11.4029 16.3572 10.8816 17.2981C8.6235 21.225 10.3079 26.9963 12.471 30.1705C13.5533 31.7248 14.8182 33.461 16.4732 33.3995C18.0928 33.332 18.6977 32.3622 20.6526 32.3622C22.5895 32.3622 23.157 33.3995 24.8456 33.3603C26.5835 33.332 27.6784 31.7991 28.7228 30.23C29.5004 29.1225 30.0987 27.8985 30.4957 26.6033C29.486 26.1743 28.6244 25.4564 28.0183 24.539C27.4121 23.6215 27.0883 22.5451 27.0871 21.4441Z" fill="#292929"/>
<path d="M23.8975 11.9567C24.8451 10.8141 25.3119 9.34546 25.1989 7.86267C23.7512 8.0154 22.414 8.7104 21.4536 9.80918C20.9841 10.346 20.6244 10.9704 20.3953 11.6469C20.1661 12.3234 20.072 13.0386 20.1182 13.7517C20.8423 13.7591 21.5586 13.6015 22.2133 13.2906C22.8679 12.9797 23.4438 12.5236 23.8975 11.9567Z" fill="#292929"/>
<path d="M52.6834 29.6215H47.3686L46.0923 33.4067H43.8411L48.8752 19.4026H51.2141L56.2482 33.4067H53.9587L52.6834 29.6215ZM47.9191 27.8749H52.1319L50.0551 21.7319H49.997L47.9191 27.8749Z" fill="#292929"/>
<path d="M67.12 28.3009C67.12 31.4738 65.4292 33.5124 62.8776 33.5124C62.2313 33.5464 61.5884 33.3968 61.0228 33.0809C60.4571 32.765 59.9914 32.2954 59.6791 31.726H59.6308V36.7834H57.5441V23.195H59.5639V24.8933H59.6023C59.929 24.3266 60.4025 23.8595 60.9725 23.5417C61.5425 23.2238 62.1876 23.0671 62.8392 23.0882C65.4193 23.0882 67.12 25.1367 67.12 28.3009ZM64.9753 28.3009C64.9753 26.2336 63.9116 24.8746 62.2888 24.8746C60.6945 24.8746 59.6221 26.2623 59.6221 28.3009C59.6221 30.3582 60.6945 31.7359 62.2888 31.7359C63.9116 31.7359 64.9752 30.3868 64.9752 28.3009H64.9753Z" fill="#292929"/>
<path d="M78.3096 28.3009C78.3096 31.4738 76.6182 33.5124 74.0666 33.5124C73.4202 33.5464 72.7774 33.3968 72.2117 33.0809C71.646 32.765 71.1804 32.2954 70.868 31.726H70.8198V36.7834H68.7331V23.195H70.7529V24.8933H70.7913C71.1179 24.3266 71.5915 23.8595 72.1615 23.5417C72.7314 23.2238 73.3766 23.0671 74.0282 23.0882C76.6083 23.0882 78.3096 25.1367 78.3096 28.3009ZM76.1642 28.3009C76.1642 26.2336 75.1006 24.8746 73.4778 24.8746C71.8834 24.8746 70.811 26.2623 70.811 28.3009C70.811 30.3582 71.8834 31.7359 73.4778 31.7359C75.1006 31.7359 76.1642 30.3868 76.1642 28.3009Z" fill="#292929"/>
<path d="M85.7033 29.5032C85.8579 30.892 87.2011 31.8038 89.0367 31.8038C90.7955 31.8038 92.0609 30.8919 92.0609 29.6397C92.0609 28.5527 91.2977 27.9019 89.4906 27.4559L87.6836 27.0186C85.1232 26.3975 83.9346 25.1949 83.9346 23.2434C83.9346 20.8271 86.0311 19.1675 89.0071 19.1675C91.9545 19.1675 93.9743 20.8271 94.0423 23.2434H91.9359C91.8098 21.8458 90.6595 21.0022 88.9786 21.0022C87.2976 21.0022 86.1473 21.8558 86.1473 23.098C86.1473 24.0881 86.882 24.6707 88.6792 25.1167L90.2154 25.4955C93.0762 26.175 94.2638 27.3292 94.2638 29.3776C94.2638 31.9976 92.187 33.6385 88.882 33.6385C85.7898 33.6385 83.7021 32.0361 83.5672 29.5031L85.7033 29.5032Z" fill="#292929"/>
<path d="M98.7693 20.7784V23.1947H100.703V24.8544H98.7693V30.4832C98.7693 31.3577 99.1564 31.7652 100.006 31.7652C100.236 31.7611 100.465 31.745 100.693 31.7167V33.3664C100.311 33.4381 99.9222 33.4706 99.5336 33.4634C97.4755 33.4634 96.6728 32.6869 96.6728 30.7068V24.8544H95.1947V23.1947H96.6728V20.7784H98.7693Z" fill="#292929"/>
<path d="M101.821 28.3014C101.821 25.089 103.705 23.0703 106.642 23.0703C109.59 23.0703 111.465 25.0889 111.465 28.3014C111.465 31.5226 109.6 33.5325 106.642 33.5325C103.686 33.5325 101.821 31.5226 101.821 28.3014ZM109.339 28.3014C109.339 26.0977 108.333 24.7971 106.642 24.7971C104.952 24.7971 103.946 26.1076 103.946 28.3014C103.946 30.5139 104.952 31.8046 106.642 31.8046C108.333 31.8046 109.339 30.5139 109.339 28.3014H109.339Z" fill="#292929"/>
<path d="M113.185 23.1957H115.175V24.9335H115.224C115.358 24.3907 115.675 23.9111 116.12 23.5751C116.565 23.2392 117.112 23.0675 117.669 23.0888C117.909 23.088 118.149 23.1142 118.384 23.167V25.1273C118.08 25.0342 117.764 24.9914 117.446 25.0007C117.143 24.9883 116.841 25.042 116.56 25.158C116.28 25.2741 116.028 25.4497 115.821 25.6729C115.614 25.896 115.458 26.1615 115.364 26.4509C115.269 26.7404 115.238 27.047 115.272 27.3498V33.4058H113.185L113.185 23.1957Z" fill="#292929"/>
<path d="M128.005 30.407C127.724 32.2605 125.927 33.5325 123.627 33.5325C120.67 33.5325 118.835 31.5425 118.835 28.3499C118.835 25.1473 120.68 23.0703 123.54 23.0703C126.352 23.0703 128.121 25.0108 128.121 28.1065V28.8245H120.941V28.9511C120.908 29.3269 120.955 29.7054 121.078 30.0616C121.202 30.4178 121.4 30.7435 121.659 31.017C121.917 31.2905 122.231 31.5056 122.579 31.6481C122.926 31.7905 123.3 31.857 123.676 31.8431C124.169 31.8895 124.664 31.7748 125.087 31.5161C125.51 31.2573 125.838 30.8684 126.023 30.407L128.005 30.407ZM120.951 27.3598H126.033C126.052 27.0219 126.001 26.6838 125.883 26.3667C125.766 26.0496 125.584 25.7603 125.35 25.517C125.116 25.2737 124.834 25.0816 124.523 24.9528C124.211 24.824 123.877 24.7612 123.54 24.7685C123.2 24.7665 122.863 24.832 122.549 24.9614C122.234 25.0908 121.948 25.2815 121.708 25.5224C121.467 25.7633 121.276 26.0497 121.146 26.3651C121.016 26.6804 120.95 27.0185 120.951 27.3598V27.3598Z" fill="#292929"/>
<path d="M47.658 8.86042C48.0955 8.82889 48.5345 8.89527 48.9433 9.05478C49.3522 9.2143 49.7207 9.46296 50.0223 9.78284C50.3238 10.1027 50.551 10.4858 50.6873 10.9046C50.8236 11.3233 50.8657 11.7672 50.8105 12.2043C50.8105 14.3542 49.6537 15.59 47.658 15.59H45.238V8.86042H47.658ZM46.2786 14.6383H47.5418C47.8544 14.6571 48.1673 14.6056 48.4575 14.4876C48.7478 14.3696 49.0083 14.1881 49.2199 13.9563C49.4316 13.7244 49.5891 13.4481 49.681 13.1474C49.7729 12.8467 49.7969 12.5292 49.7513 12.218C49.7936 11.908 49.7672 11.5925 49.6739 11.294C49.5805 10.9955 49.4226 10.7214 49.2115 10.4914C49.0003 10.2614 48.7411 10.0812 48.4524 9.96362C48.1638 9.84606 47.8528 9.79408 47.5418 9.81142H46.2786V14.6383Z" fill="#292929"/>
<path d="M51.986 13.0474C51.9542 12.7137 51.9922 12.377 52.0976 12.0589C52.203 11.7408 52.3734 11.4484 52.5979 11.2003C52.8224 10.9522 53.096 10.754 53.4013 10.6184C53.7065 10.4828 54.0366 10.4127 54.3704 10.4127C54.7042 10.4127 55.0343 10.4828 55.3395 10.6184C55.6448 10.754 55.9184 10.9522 56.1429 11.2003C56.3674 11.4484 56.5378 11.7408 56.6432 12.0589C56.7485 12.377 56.7866 12.7137 56.7548 13.0474C56.7872 13.3814 56.7496 13.7185 56.6445 14.0371C56.5394 14.3557 56.3691 14.6487 56.1446 14.8973C55.92 15.1458 55.6462 15.3444 55.3406 15.4803C55.0351 15.6163 54.7046 15.6865 54.3704 15.6865C54.0362 15.6865 53.7057 15.6163 53.4002 15.4803C53.0946 15.3444 52.8208 15.1458 52.5962 14.8973C52.3717 14.6487 52.2014 14.3557 52.0963 14.0371C51.9912 13.7185 51.9536 13.3814 51.986 13.0474ZM55.7284 13.0474C55.7284 11.9467 55.2361 11.303 54.372 11.303C53.5047 11.303 53.0168 11.9467 53.0168 13.0474C53.0168 14.1569 53.5047 14.7956 54.372 14.7956C55.2361 14.7955 55.7284 14.1524 55.7284 13.0474H55.7284Z" fill="#292929"/>
<path d="M63.0936 15.5885H62.0585L61.0136 11.8482H60.9346L59.894 15.5885H58.8688L57.4751 10.51H58.4872L59.3929 14.3852H59.4675L60.507 10.51H61.4642L62.5037 14.3852H62.5827L63.484 10.51H64.4818L63.0936 15.5885Z" fill="#292929"/>
<path d="M65.6541 10.5097H66.6147V11.3165H66.6892C66.8157 11.0267 67.0291 10.7838 67.2995 10.6216C67.57 10.4594 67.8841 10.386 68.198 10.4116C68.444 10.393 68.6911 10.4303 68.9208 10.5206C69.1505 10.611 69.3571 10.7521 69.5251 10.9335C69.6932 11.1149 69.8185 11.332 69.8917 11.5686C69.9649 11.8053 69.9842 12.0554 69.9481 12.3006V15.5884H68.9502V12.5523C68.9502 11.7361 68.5972 11.3302 67.8592 11.3302C67.6922 11.3224 67.5254 11.351 67.3704 11.4139C67.2154 11.4769 67.0758 11.5728 66.9611 11.695C66.8465 11.8173 66.7595 11.963 66.7061 12.1222C66.6527 12.2814 66.6342 12.4502 66.6519 12.6173V15.5884H65.6541L65.6541 10.5097Z" fill="#292929"/>
<path d="M71.538 8.52808H72.5358V15.5893H71.538V8.52808Z" fill="#292929"/>
<path d="M73.9228 13.0474C73.891 12.7137 73.9291 12.377 74.0345 12.0589C74.1399 11.7408 74.3103 11.4484 74.5348 11.2003C74.7593 10.9522 75.033 10.754 75.3383 10.6184C75.6435 10.4828 75.9737 10.4127 76.3075 10.4127C76.6413 10.4127 76.9714 10.4828 77.2767 10.6184C77.5819 10.754 77.8556 10.9522 78.0801 11.2003C78.3046 11.4484 78.4751 11.7408 78.5804 12.0589C78.6858 12.377 78.7239 12.7137 78.6921 13.0474C78.7245 13.3815 78.6869 13.7186 78.5818 14.0372C78.4766 14.3558 78.3063 14.6488 78.0817 14.8973C77.8571 15.1458 77.5833 15.3444 77.2777 15.4804C76.9721 15.6163 76.6417 15.6865 76.3075 15.6865C75.9733 15.6865 75.6428 15.6163 75.3372 15.4804C75.0317 15.3444 74.7578 15.1458 74.5332 14.8973C74.3086 14.6488 74.1383 14.3558 74.0332 14.0372C73.9281 13.7186 73.8905 13.3815 73.9228 13.0474ZM77.6652 13.0474C77.6652 11.9468 77.1729 11.3031 76.3088 11.3031C75.4415 11.3031 74.9536 11.9468 74.9536 13.0474C74.9536 14.1569 75.4415 14.7956 76.3088 14.7956C77.1729 14.7956 77.6652 14.1525 77.6652 13.0474H77.6652Z" fill="#292929"/>
<path d="M79.7426 14.1525C79.7426 13.2384 80.4202 12.7115 81.6231 12.6366L82.9926 12.5573V12.1191C82.9926 11.5828 82.6396 11.2799 81.9575 11.2799C81.4005 11.2799 81.0145 11.4853 80.9038 11.8443H79.9377C80.0397 10.9721 80.8566 10.4127 82.0036 10.4127C83.2712 10.4127 83.9861 11.0465 83.9861 12.1191V15.5885H83.0255V14.8749H82.9466C82.7863 15.1308 82.5613 15.3395 82.2945 15.4796C82.0277 15.6196 81.7287 15.6861 81.4279 15.6721C81.2157 15.6943 81.0011 15.6716 80.7982 15.6054C80.5952 15.5392 80.4083 15.431 80.2495 15.2878C80.0907 15.1446 79.9636 14.9696 79.8763 14.7741C79.7889 14.5785 79.7434 14.3668 79.7426 14.1525ZM82.9926 13.7186V13.2941L81.758 13.3733C81.0617 13.4201 80.7459 13.658 80.7459 14.1057C80.7459 14.5627 81.1406 14.8286 81.6834 14.8286C81.8425 14.8448 82.0031 14.8286 82.1558 14.7812C82.3086 14.7337 82.4502 14.6559 82.5723 14.5523C82.6945 14.4488 82.7947 14.3216 82.8669 14.1783C82.9391 14.0351 82.9818 13.8788 82.9926 13.7186Z" fill="#292929"/>
<path d="M85.2976 13.0472C85.2976 11.4426 86.1189 10.4262 87.3963 10.4262C87.7123 10.4115 88.0259 10.4875 88.3005 10.6453C88.5751 10.8031 88.7992 11.0361 88.9468 11.317H89.0214V8.52808H90.0192V15.5884H89.0631V14.7861H88.9841C88.8251 15.0652 88.5931 15.2953 88.3132 15.4515C88.0334 15.6076 87.7163 15.6839 87.3964 15.6721C86.1101 15.6721 85.2976 14.6556 85.2976 13.0472ZM86.3284 13.0472C86.3284 14.1243 86.8339 14.7724 87.6793 14.7724C88.5203 14.7724 89.0401 14.1149 89.0401 13.0516C89.0401 11.9933 88.5148 11.3264 87.6793 11.3264C86.8393 11.3264 86.3283 11.979 86.3283 13.0472H86.3284Z" fill="#292929"/>
<path d="M94.1476 13.0474C94.1158 12.7137 94.1538 12.377 94.2592 12.0589C94.3645 11.7408 94.5349 11.4484 94.7594 11.2003C94.9839 10.9522 95.2576 10.754 95.5628 10.6184C95.8681 10.4828 96.1982 10.4127 96.5319 10.4127C96.8657 10.4127 97.1958 10.4828 97.5011 10.6184C97.8063 10.754 98.08 10.9522 98.3045 11.2003C98.529 11.4484 98.6994 11.7408 98.8047 12.0589C98.9101 12.377 98.9481 12.7137 98.9163 13.0474C98.9487 13.3814 98.9111 13.7185 98.8061 14.0371C98.701 14.3557 98.5307 14.6487 98.3061 14.8973C98.0816 15.1458 97.8077 15.3444 97.5022 15.4803C97.1966 15.6163 96.8661 15.6865 96.5319 15.6865C96.1978 15.6865 95.8673 15.6163 95.5617 15.4803C95.2562 15.3444 94.9823 15.1458 94.7578 14.8973C94.5332 14.6487 94.3629 14.3557 94.2578 14.0371C94.1527 13.7185 94.1152 13.3814 94.1476 13.0474ZM97.89 13.0474C97.89 11.9467 97.3976 11.303 96.5336 11.303C95.6662 11.303 95.1783 11.9467 95.1783 13.0474C95.1783 14.1569 95.6663 14.7956 96.5336 14.7956C97.3976 14.7955 97.89 14.1524 97.89 13.0474Z" fill="#292929"/>
<path d="M100.255 10.5097H101.216V11.3165H101.29C101.417 11.0267 101.63 10.7838 101.901 10.6216C102.171 10.4594 102.485 10.386 102.799 10.4116C103.045 10.393 103.292 10.4303 103.522 10.5206C103.752 10.611 103.958 10.7521 104.126 10.9335C104.294 11.1149 104.42 11.332 104.493 11.5686C104.566 11.8053 104.585 12.0554 104.549 12.3006V15.5884H103.551V12.5523C103.551 11.7361 103.198 11.3302 102.46 11.3302C102.293 11.3224 102.127 11.351 101.972 11.4139C101.817 11.4769 101.677 11.5728 101.562 11.695C101.448 11.8173 101.361 11.963 101.307 12.1222C101.254 12.2814 101.235 12.4502 101.253 12.6173V15.5884H100.255V10.5097Z" fill="#292929"/>
<path d="M110.187 9.2467V10.534H111.283V11.3781H110.187V13.989C110.187 14.5209 110.406 14.7538 110.902 14.7538C111.03 14.7534 111.157 14.7456 111.283 14.7306V15.5653C111.104 15.5975 110.922 15.6147 110.74 15.6165C109.63 15.6165 109.189 15.2245 109.189 14.2456V11.378H108.386V10.5339H109.189V9.2467H110.187Z" fill="#292929"/>
<path d="M112.646 8.52808H113.635V11.3264H113.714C113.846 11.034 114.066 10.7897 114.342 10.627C114.617 10.4642 114.937 10.3908 115.255 10.4168C115.5 10.4034 115.745 10.4444 115.972 10.537C116.199 10.6295 116.403 10.7712 116.569 10.952C116.736 11.1328 116.86 11.3483 116.934 11.583C117.008 11.8177 117.029 12.0659 116.997 12.3099V15.5884H115.998V12.5571C115.998 11.746 115.622 11.3352 114.917 11.3352C114.745 11.3211 114.573 11.3448 114.411 11.4046C114.25 11.4644 114.103 11.559 113.982 11.6816C113.861 11.8042 113.768 11.952 113.709 12.1145C113.651 12.2771 113.628 12.4505 113.644 12.6226V15.5884H112.646L112.646 8.52808Z" fill="#292929"/>
<path d="M122.815 14.2177C122.679 14.6817 122.386 15.0832 121.985 15.3517C121.585 15.6203 121.103 15.7389 120.624 15.6867C120.291 15.6956 119.96 15.6315 119.654 15.4989C119.348 15.3664 119.074 15.1686 118.852 14.9192C118.63 14.6698 118.464 14.3749 118.367 14.0548C118.27 13.7348 118.243 13.3973 118.288 13.0657C118.244 12.7332 118.271 12.395 118.368 12.0739C118.466 11.7529 118.63 11.4566 118.851 11.205C119.072 10.9535 119.345 10.7526 119.65 10.6159C119.955 10.4792 120.286 10.4099 120.62 10.4128C122.026 10.4128 122.875 11.3781 122.875 12.9727V13.3223H119.305V13.3785C119.289 13.5648 119.313 13.7524 119.373 13.9292C119.434 14.1059 119.531 14.268 119.658 14.405C119.785 14.5419 119.938 14.6508 120.11 14.7245C120.281 14.7983 120.465 14.8353 120.651 14.8332C120.89 14.862 121.132 14.8188 121.346 14.7092C121.56 14.5996 121.737 14.4285 121.854 14.2176L122.815 14.2177ZM119.305 12.5812H121.859C121.871 12.4108 121.848 12.2396 121.791 12.0786C121.734 11.9177 121.644 11.7705 121.526 11.6467C121.409 11.5228 121.267 11.4249 121.11 11.3593C120.953 11.2937 120.784 11.2618 120.614 11.2657C120.442 11.2636 120.27 11.2961 120.11 11.3614C119.951 11.4268 119.805 11.5236 119.683 11.6462C119.561 11.7688 119.465 11.9147 119.4 12.0753C119.335 12.2358 119.303 12.4079 119.305 12.5812H119.305Z" fill="#292929"/>
</svg>
